# xmcd
#
# Track frame offsets: 
#        182
#        16000
#        30195
#        46995
#        62957
#        80402
#        98132
#        117045
#        133662
#        150632
#        169695
#        187932
#        205920
#        222082
#        239457
#        254920
#        272332
#        290020
#        308060
#        324912
#
# Disc length: 4601 seconds
#
# Revision: 8
# Processed by: cddbd v1.5.2PL0 Copyright (c) Steve Scherf et al.
# Submitted via: ExactAudioCopyFreeDBPlugin 1.0
#
DISCID=0d11f714
DTITLE=Various Artist - Just The Best Vol. 11 CD 2
DYEAR=1997
DGENRE=Pop
TTITLE0='N Sync - Tearin' Up My Heart
TTITLE1=Chicane - Offshore
TTITLE2=Masterboy - Just For You
TTITLE3=2 Young - Crimson and Clover
TTITLE4=Yello feat. Stina Nordenstam - To The Sea
TTITLE5=3T - I Need You
TTITLE6=Pharao - Temple Of Love
TTITLE7=Lisa Stansfield vs. The Dirty Rotten Scoundrels - People Hold 
TTITLE7=On
TTITLE8=Mark Owen - Child
TTITLE9=East 17 and Gabrielle - If You Ever
TTITLE10=Lyte Funkie Ones - Step By Step
TTITLE11=R'N'G - Rhythm Of My Heart (Tik Tak)
TTITLE12=Porn Kings - Up To No Good
TTITLE13=Fine Young Cannibals - Flame
TTITLE14=United Dreams - I Can't Wait A Minute
TTITLE15=Sqeezer - Saturday Night
TTITLE16=Apollo Four Forty - Ain't Talkin' Bout Dub
TTITLE17=Prodigy - Breathe
TTITLE18=Salt 'N' Pepa - Champagne
TTITLE19=No Mercy - When I Die
EXTD=
EXTT0=
EXTT1=
EXTT2=
EXTT3=
EXTT4=
EXTT5=
EXTT6=
EXTT7=
EXTT8=
EXTT9=
EXTT10=
EXTT11=
EXTT12=
EXTT13=
EXTT14=
EXTT15=
EXTT16=
EXTT17=
EXTT18=
EXTT19=
PLAYORDER=
